<?xml version="1.0" encoding="UTF-8"?>
<svg id="Layer_1" data-name="Layer 1" xmlns="http://www.w3.org/2000/svg" viewBox="0 0 141.63 69.98">
  <defs>
    <style>
      .cls-1 {
        fill: #4d4d4d;
      }

      .cls-2 {
        fill: none;
      }

      .cls-3 {
        fill: #624da0;
      }
    </style>
  </defs>
  <path class="cls-3" d="M50.03,38.69c-1.11,4.13-3.76,7.59-7.46,9.72-7.65,4.42-17.47,1.79-21.89-5.86-4.42-7.65-1.79-17.47,5.86-21.89,7.66-4.41,17.47-1.78,21.89,5.87,2.14,3.7,2.71,8.02,1.6,12.16ZM73.75,51.8l-21.92,12.66c-7.99,4.61-17.31,5.83-26.22,3.45-8.91-2.39-16.36-8.11-20.97-16.1C.03,43.82-1.2,34.51,1.19,25.6,3.57,16.69,9.29,9.24,17.28,4.62,22.71,1.49,28.64,0,34.5,0c11.16,0,22.04,5.41,28.65,15.14h0s-11.77,6.8-11.77,6.8h-.01s-.03-.05-.05-.07c-.02-.03-.04-.05-.06-.08-.07-.1-.15-.2-.24-.3-.18-.25-.39-.5-.6-.73-.07-.09-.15-.18-.24-.27-.12-.14-.24-.27-.36-.4s-.24-.26-.37-.38c-.05-.05-.1-.1-.15-.14-.25-.26-.51-.5-.77-.73-.08-.08-.17-.15-.25-.22-.3-.26-.61-.51-.93-.76-.01-.01-.02-.01-.03-.02-.35-.27-.7-.53-1.07-.76-.01-.02-.03-.03-.04-.03-.38-.26-.76-.49-1.15-.71-.2-.12-.4-.23-.6-.33-.33-.18-.66-.35-1-.5-.17-.09-.35-.17-.53-.24-.44-.2-.89-.37-1.35-.54-.36-.12-.72-.24-1.09-.35-.39-.11-.77-.22-1.16-.31h-.01c-.39-.09-.78-.17-1.18-.24-.4-.07-.8-.12-1.2-.17s-.8-.08-1.21-.11c-.61-.03-1.22-.04-1.83-.02-.07,0-.14.01-.21.01-.62.02-1.23.07-1.85.15-.67.09-1.34.2-2,.36-.24.05-.49.11-.73.18-.33.09-.66.19-.99.29-.33.1-.65.22-.97.34-.29.11-.59.23-.88.35l-.39.18c-.21.09-.41.19-.62.29-.41.2-.82.42-1.22.65-10.03,5.8-13.49,18.68-7.69,28.72.21.37.44.73.67,1.08.04.06.08.13.13.19.5.75,1.04,1.45,1.63,2.11.3.35.61.68.94,1,.29.29.59.57.89.84.08.07.15.14.23.2.32.28.66.55,1,.81.34.26.7.51,1.05.74.05.04.1.07.15.1.33.22.67.43,1.01.62.2.12.4.23.6.33.2.11.4.22.6.31.7.35,1.42.65,2.15.92.6.22,1.21.4,1.82.57.4.1.8.19,1.2.28.04,0,.08.01.12.02.22.04.44.08.65.12.66.1,1.32.18,1.98.23.02-.01.04-.01.06,0,.66.04,1.32.05,1.99.03h.05c.67-.03,1.33-.08,2-.16.66-.09,1.33-.21,2-.36,1.99-.46,3.94-1.22,5.8-2.29l42.22-24.37c-.09.27-.18.55-.27.82-.02.09-.05.17-.08.26-.14.5-.28,1.01-.39,1.52-.13.59-.23,1.19-.31,1.79-.04.3-.07.6-.1.9-.03.3-.05.61-.06.91-.01.3-.02.6-.02.9v.02c0,.34.01.69.03,1.03.01.24.02.48.05.72.01.24.04.49.07.73.02.11.03.22.04.32.02.17.05.35.08.52.05.32.11.65.18.97.06.29.13.59.21.89.08.33.18.66.28.99.01.03.02.06.03.08.1.32.21.65.33.97,0,.02.01.04.02.06.12.32.24.63.38.94l-14.01,8.09ZM124.36,65.36c-15.77,9.1-35.8,4.32-45.87-10.52h0s11.77-6.8,11.77-6.8h.01s.03.05.05.07c.02.03.04.06.06.08.07.1.15.2.24.3.18.25.39.49.6.73.07.09.15.18.24.27.23.27.48.53.73.78.05.05.1.1.15.14.25.26.51.5.77.73.08.08.17.15.25.22.3.26.61.51.93.76.01.01.02.01.03.02.35.26.71.52,1.07.76.01.02.03.03.04.03.38.25.76.49,1.15.71.2.11.4.22.6.33.33.18.66.35,1,.5.18.09.36.17.54.25.44.19.89.37,1.34.53.36.12.72.24,1.09.35.19.06.39.11.58.16.2.06.39.11.59.15.39.09.78.17,1.18.24.4.07.8.12,1.2.17.4.05.8.08,1.21.11.6.03,1.19.04,1.79.02h.04c.07,0,.14,0,.21,0,.28-.01.57-.02.85-.05h.13c.29-.03.58-.06.87-.1.67-.08,1.34-.2,2-.36.24-.05.49-.11.73-.18.66-.18,1.31-.39,1.96-.63.23-.09.47-.18.7-.28.19-.08.38-.16.57-.25.21-.09.41-.19.62-.29.41-.2.82-.42,1.22-.65,4.86-2.81,8.34-7.34,9.79-12.77,1.46-5.42.71-11.09-2.1-15.95-.21-.37-.43-.73-.67-1.08-.05-.07-.09-.15-.15-.22-.23-.35-.48-.68-.73-1.01-.21-.27-.43-.54-.65-.81-.44-.53-.91-1.03-1.41-1.5-.25-.24-.5-.48-.76-.7-.5-.44-1.03-.86-1.57-1.24-1.36-.97-2.83-1.78-4.37-2.41h0c-.31-.13-.62-.25-.94-.36-.49-.18-.99-.33-1.5-.47-.23-.06-.45-.12-.68-.17-.43-.1-.87-.19-1.31-.26-.46-.08-.92-.14-1.38-.18-.44-.05-.88-.08-1.33-.1-2.55-.09-5.09.28-7.5,1.11-.43.15-.85.31-1.26.48-.85.35-1.69.76-2.5,1.23l-42.22,24.37c.08-.21.15-.43.22-.64.1-.33.2-.66.29-.99.12-.45.22-.91.32-1.36.18-.91.3-1.83.36-2.75.04-.68.06-1.37.03-2.05-.01-.2-.02-.4-.03-.59,0-.26-.03-.51-.06-.77-.02-.23-.05-.45-.08-.68-.06-.45-.13-.89-.22-1.34-.03-.16-.07-.33-.1-.49-.03-.12-.05-.23-.08-.34-.04-.17-.08-.33-.13-.5-.12-.43-.25-.87-.4-1.3-.14-.45-.31-.89-.49-1.32-.03-.07-.07-.15-.1-.22h.01l14-8.09,21.92-12.66c16.5-9.52,37.67-3.85,47.19,12.65,9.53,16.49,3.85,37.66-12.64,47.19ZM98.91,21.66s.1-.06.15-.09h.01c3.71-2.15,8.03-2.71,12.16-1.61,4.13,1.11,7.59,3.76,9.73,7.47,2.14,3.71,2.71,8.03,1.6,12.16-1.1,4.13-3.76,7.59-7.46,9.73-7.66,4.42-17.47,1.78-21.89-5.87-4.39-7.59-1.82-17.32,5.7-21.79Z"/>
  <path class="cls-2" d="M86.55,30.97c-.13.59-.23,1.19-.31,1.79.07-.6.18-1.2.31-1.79Z"/>
  <path class="cls-2" d="M107.7,56.45c-.2.01-.4.02-.6.02-.4,0-.79-.01-1.19-.04.6.03,1.19.04,1.79.02Z"/>
  <path class="cls-2" d="M122.56,39.59c-1.1,4.13-3.76,7.59-7.46,9.73-7.66,4.42-17.47,1.78-21.89-5.87-4.39-7.59-1.82-17.32,5.7-21.79.05-.03.1-.06.15-.09h.01c3.71-2.15,8.03-2.71,12.16-1.61,4.13,1.11,7.59,3.76,9.73,7.47,2.14,3.71,2.71,8.03,1.6,12.16Z"/>
  <path class="cls-1" d="M122.56,39.59c-1.1,4.13-3.76,7.59-7.46,9.73-7.66,4.42-17.47,1.78-21.89-5.87-4.39-7.59-1.82-17.32,5.7-21.79.05-.03.1-.06.15-.09h.01c3.71-2.15,8.03-2.71,12.16-1.61,4.13,1.11,7.59,3.76,9.73,7.47,2.14,3.71,2.71,8.03,1.6,12.16Z"/>
  <path class="cls-2" d="M51.38,21.94l11.77-6.79h0s-11.77,6.79-11.77,6.79ZM55.54,35.87c.05-.68.06-1.36.03-2.05.03.68.01,1.37-.03,2.05ZM53.88,26.27c.03.07.07.15.1.22-.03-.07-.06-.15-.09-.22h-.01ZM90.27,48.04h-.01s.04.05.06.07c-.02-.02-.04-.04-.05-.07ZM112.53,55.75c.66-.17,1.31-.38,1.96-.63-.65.24-1.3.45-1.96.63ZM114.98,15.96c1.54.63,3.01,1.44,4.37,2.41-1.35-.98-2.81-1.79-4.37-2.41ZM55.57,33.82c.03.68.01,1.37-.03,2.05.05-.68.06-1.36.03-2.05ZM112.53,55.75c.66-.17,1.31-.38,1.96-.63-.65.24-1.3.45-1.96.63ZM114.98,15.96c1.54.63,3.01,1.44,4.37,2.41-1.35-.98-2.81-1.79-4.37-2.41Z"/>
  <path class="cls-2" d="M31.19,55.29c.66.1,1.32.18,1.98.23-.67-.05-1.32-.12-1.98-.23Z"/>
  <path class="cls-2" d="M33.23,55.52c.66.04,1.32.05,1.99.03-.22.01-.43.02-.65.02-.45,0-.9,0-1.34-.05Z"/>
  <path class="cls-2" d="M35.73,13.55c-.61-.03-1.22-.04-1.83-.02.21-.01.43-.02.64-.02.4,0,.79.01,1.19.04Z"/>
  <path class="cls-2" d="M37.27,55.39c.66-.09,1.33-.21,2-.36-.66.16-1.33.28-2,.36Z"/>
  <path class="cls-2" d="M48.43,26.53c2.14,3.7,2.71,8.02,1.6,12.16-1.11,4.13-3.76,7.59-7.46,9.72-7.65,4.42-17.47,1.79-21.89-5.86-4.42-7.65-1.79-17.47,5.86-21.89,7.66-4.41,17.47-1.78,21.89,5.87Z"/>
  <path class="cls-3" d="M48.43,26.53c2.14,3.7,2.71,8.02,1.6,12.16-1.11,4.13-3.76,7.59-7.46,9.72-7.65,4.42-17.47,1.79-21.89-5.86-4.42-7.65-1.79-17.47,5.86-21.89,7.66-4.41,17.47-1.78,21.89,5.87Z"/>
  <path class="cls-1" d="M87.38,42.77s-.02-.04-.02-.06c-.12-.32-.23-.65-.33-.97-.01-.02-.02-.05-.03-.08-.1-.33-.2-.66-.28-.99-.08-.3-.15-.6-.21-.89-.07-.32-.13-.65-.18-.97-.03-.17-.06-.35-.08-.52-.01-.1-.02-.21-.04-.32-.03-.24-.06-.49-.07-.73-.03-.24-.04-.48-.05-.72-.02-.34-.03-.69-.03-1.03v-.02c0-.3.01-.6.02-.9.01-.3.03-.61.06-.91.03-.3.06-.6.1-.9.08-.6.18-1.2.31-1.79.11-.51.25-1.02.39-1.52.03-.09.06-.17.08-.26.09-.27.18-.55.27-.82l-42.22,24.37c-1.86,1.07-3.81,1.83-5.8,2.29-.67.15-1.34.27-2,.36-.67.08-1.33.13-2,.16h-.05c-.67.02-1.33.01-1.99-.03-.02-.01-.04-.01-.06,0-.66-.05-1.32-.13-1.98-.23-.21-.04-.43-.08-.65-.12-.04-.01-.08-.02-.12-.02-.4-.09-.8-.18-1.2-.28-.61-.16-1.22-.35-1.82-.57-.73-.27-1.45-.57-2.15-.92-.2-.09-.4-.2-.6-.31-.2-.1-.4-.21-.6-.33-.34-.19-.68-.4-1.01-.62-.05-.03-.1-.06-.15-.1-.35-.23-.71-.48-1.05-.74-.34-.25-.68-.53-1-.81-.08-.06-.15-.13-.23-.2-.31-.27-.61-.55-.89-.84-.33-.32-.64-.65-.94-1-.59-.66-1.13-1.36-1.63-2.11-.05-.06-.09-.13-.13-.19-.23-.35-.46-.71-.67-1.08-5.8-10.04-2.34-22.92,7.69-28.72.4-.23.81-.45,1.22-.65.21-.1.41-.2.62-.29l.39-.18c.29-.12.59-.24.88-.35.32-.12.64-.24.97-.34.33-.11.66-.2.99-.29.24-.07.49-.13.73-.18.66-.16,1.33-.27,2-.36.62-.08,1.23-.13,1.85-.15.07,0,.14-.01.21-.01.61-.02,1.22-.01,1.83.02.41.03.81.06,1.21.11s.8.1,1.2.17c.4.07.79.15,1.18.24h.01c.39.09.77.2,1.16.31.37.11.73.23,1.09.35.46.17.91.34,1.35.54.18.07.36.15.53.24.34.15.67.32,1,.5.2.1.4.21.6.33.39.22.77.45,1.15.71.01,0,.03.01.04.03.37.23.72.49,1.07.76.01.01.02.01.03.02.32.24.63.49.93.76.08.07.17.14.25.22.26.23.52.47.77.73.05.04.1.09.15.14.13.12.25.25.37.38s.24.26.36.4c.09.09.17.18.24.27.21.23.42.48.6.73.09.1.17.2.24.3.02.03.04.05.06.08.02.02.04.05.06.07l11.77-6.79h0C56.54,5.41,45.66,0,34.5,0c-5.86,0-11.79,1.49-17.22,4.62C9.29,9.24,3.57,16.69,1.19,25.6-1.2,34.51.03,43.82,4.64,51.81c4.61,7.99,12.06,13.71,20.97,16.1,8.91,2.38,18.23,1.16,26.22-3.45l21.92-12.66,14.01-8.09c-.14-.31-.26-.62-.38-.94Z"/>
</svg>